<svg width="157" height="29" viewBox="0 0 157 29" fill="none" xmlns="http://www.w3.org/2000/svg">
<mask id="mask0_6_245" style="mask-type:alpha" maskUnits="userSpaceOnUse" x="0" y="0" width="35" height="29">
<path d="M9.65634 9.7702V24.2158C10.123 24.1504 10.6016 24.076 11.0922 23.9928V8.85118C10.5777 9.16049 10.0991 9.46684 9.65634 9.7702Z" fill="url(#paint0_linear_6_245)"/>
<path d="M24.823 1.83805C24.811 1.81425 24.8021 1.79046 24.7961 1.76667C24.7781 1.73693 24.7632 1.70421 24.7512 1.66852C24.7392 1.63878 24.7243 1.60904 24.7063 1.57929C24.6944 1.56145 24.6854 1.54063 24.6794 1.51684C24.6555 1.48115 24.6345 1.44843 24.6166 1.41869C24.6106 1.41274 24.6076 1.40679 24.6076 1.40084C24.1679 0.69596 23.3871 0.223064 22.4986 0.223064H12.1422C10.7781 0.223064 9.66531 1.33838 9.66531 2.69461V7.17374C10.114 6.91498 10.5986 6.64731 11.1012 6.39747V2.69461C11.1012 2.12357 11.5679 1.65067 12.1422 1.65067H22.4986C22.5704 1.65662 22.6452 1.66554 22.723 1.67744C22.7649 1.68934 22.8068 1.70124 22.8486 1.71313C22.8606 1.71908 22.8726 1.72503 22.8845 1.73098C22.9324 1.74882 22.9803 1.77262 23.0281 1.80236C23.0341 1.80236 23.0401 1.80533 23.0461 1.81128C23.082 1.83507 23.1179 1.86184 23.1538 1.89158C23.1717 1.90348 23.1867 1.91538 23.1986 1.92727C23.2226 1.95107 23.2465 1.97486 23.2704 1.99865C23.2884 2.0165 23.3033 2.03434 23.3153 2.05219C23.3392 2.08193 23.3602 2.11167 23.3781 2.14141C23.3841 2.15331 23.3931 2.16521 23.4051 2.1771C23.4948 2.32879 23.5397 2.50724 23.5397 2.69461V2.96229H24.9756V2.69461C24.9756 2.39125 24.9217 2.10572 24.823 1.83805Z" fill="url(#paint1_linear_6_245)"/>
<path d="M24.9756 18.3448V3.89916C24.5149 3.95864 24.0363 4.033 23.5397 4.12222V19.2638C24.0542 18.9545 24.5329 18.6481 24.9756 18.3448Z" fill="url(#paint2_linear_6_245)"/>
<path d="M0.0986348 14.8918C0.511455 16.0517 2.48581 16.5424 5.38453 16.3997C3.85889 16.2391 2.85376 15.784 2.57556 15.0077C1.74094 12.679 7.84351 8.39613 16.2076 5.44276C22.723 3.14074 28.682 2.32879 31.3922 3.18535C29.5884 1.39192 22.364 2.07003 14.3499 4.89848C5.60889 7.98569 -0.771878 12.4559 0.0986348 14.8918Z" fill="url(#paint3_linear_6_245)"/>
<path style="mix-blend-mode:screen" d="M5.29483 16.4086C5.32475 16.4086 5.35466 16.4056 5.38458 16.3997C3.85894 16.2391 2.85381 15.784 2.5756 15.0077C1.74099 12.679 7.84355 8.39613 16.2077 5.44276C21.4307 3.59579 26.3038 2.71246 29.4269 2.87306C29.9833 2.84927 30.5008 2.84927 30.9795 2.87306C30.3423 2.48939 29.3641 2.27525 28.1346 2.2128C24.9218 2.34663 20.5512 3.26566 15.9205 4.89849C7.17945 7.98569 0.798679 12.4559 1.66919 14.8918C2.00124 15.8108 3.32047 16.3104 5.29483 16.4086Z" fill="url(#paint4_linear_6_245)"/>
<path d="M4.62168 14.4189C4.93579 15.2933 6.27297 15.7305 8.26527 15.7483C7.26015 15.5431 6.58707 15.1505 6.38066 14.5705C5.60886 12.4113 11.2448 8.45859 18.9627 5.73721C22.7319 4.40774 26.2948 3.61364 29.0499 3.40842C26.223 3.24781 21.7717 4.05084 16.9973 5.73721C9.40502 8.41397 3.86784 12.3042 4.62168 14.4189Z" fill="url(#paint5_linear_6_245)"/>
<path style="mix-blend-mode:screen" d="M18.0922 5.79074C10.4999 8.47643 4.95375 12.3577 5.71657 14.4724C5.95888 15.1683 6.85631 15.5877 8.22042 15.7394C7.23324 15.5342 6.58708 15.1416 6.38067 14.5705C5.60888 12.4113 11.2448 8.45859 18.9627 5.7372C22.373 4.53266 25.6217 3.77424 28.2422 3.4798C25.505 3.66717 21.9063 4.44343 18.0922 5.79074Z" fill="url(#paint6_linear_6_245)"/>
<path d="M18.9897 2.57862C18.9897 2.79276 18.8102 2.96229 18.5949 2.96229C18.3795 2.96229 18.209 2.79276 18.209 2.57862C18.209 2.36448 18.3795 2.19495 18.5949 2.19495C18.8102 2.19495 18.9897 2.36448 18.9897 2.57862Z" fill="url(#paint7_linear_6_245)"/>
<path d="M16.0461 2.96229H17.4641C17.6794 2.96229 17.85 2.79276 17.85 2.57862C17.85 2.36448 17.6794 2.19495 17.4641 2.19495H16.0461C15.8307 2.19495 15.6602 2.36448 15.6602 2.57862C15.6602 2.79276 15.8307 2.96229 16.0461 2.96229Z" fill="url(#paint8_linear_6_245)"/>
<path d="M9.81788 26.2769C9.82984 26.3007 9.83882 26.3245 9.8448 26.3483C9.85677 26.3781 9.87173 26.4078 9.88967 26.4375C9.90164 26.4732 9.9166 26.5059 9.93455 26.5357C9.94053 26.5535 9.9495 26.5744 9.96147 26.5981C9.97942 26.6338 10.0004 26.6666 10.0243 26.6963C10.0243 26.7022 10.0273 26.7082 10.0333 26.7141C10.473 27.419 11.2538 27.883 12.1422 27.883H22.4897C23.8628 27.883 24.9756 26.7766 24.9756 25.4204V20.9412C24.5269 21.2 24.0422 21.4588 23.5397 21.7175V25.4204C23.5397 25.9914 23.073 26.4554 22.4897 26.4554H12.1422C12.0645 26.4554 11.9897 26.4494 11.9179 26.4375C11.876 26.4256 11.8341 26.4137 11.7922 26.4019C11.7803 26.3959 11.7683 26.39 11.7563 26.384C11.7025 26.3662 11.6546 26.3424 11.6128 26.3126C11.6068 26.3067 11.6008 26.3037 11.5948 26.3037C11.5529 26.2799 11.514 26.2531 11.4781 26.2234C11.4662 26.2115 11.4512 26.1966 11.4333 26.1788C11.4093 26.1609 11.3884 26.1401 11.3704 26.1163C11.3525 26.0985 11.3375 26.0806 11.3256 26.0628C11.3016 26.0331 11.2807 26.0033 11.2628 25.9736C11.2508 25.9617 11.2418 25.9498 11.2358 25.9379C11.1461 25.7862 11.0922 25.6077 11.0922 25.4204V25.1527H9.65634V25.4204C9.65634 25.7237 9.71916 26.0093 9.81788 26.2769Z" fill="url(#paint9_linear_6_245)"/>
<path d="M34.5422 13.2232C34.1294 12.0633 32.146 11.5726 29.2473 11.7064C30.7819 11.8759 31.7871 12.331 32.0653 13.1072C32.8909 15.436 26.7884 19.7189 18.4332 22.6722C11.9178 24.9742 5.95887 25.7862 3.24861 24.9296C5.05246 26.7231 12.2678 26.0449 20.2909 23.2165C29.0319 20.1293 35.4127 15.6502 34.5422 13.2232Z" fill="url(#paint10_linear_6_245)"/>
<path style="mix-blend-mode:screen" d="M29.3461 11.7064C29.3102 11.7064 29.2773 11.7064 29.2473 11.7064C30.782 11.8759 31.7871 12.331 32.0653 13.1072C32.8909 15.436 26.7884 19.7189 18.4332 22.6722C13.2012 24.5192 8.33708 25.4025 5.214 25.2419C4.65759 25.2657 4.13708 25.2657 3.65247 25.2419C4.29862 25.6256 5.26785 25.8397 6.50631 25.9022C9.71913 25.7683 14.0807 24.8493 18.7204 23.2165C27.4525 20.1293 33.8332 15.6502 32.9627 13.2232C32.6396 12.3042 31.3204 11.8045 29.3461 11.7064Z" fill="url(#paint11_linear_6_245)"/>
<path d="M30.0192 13.6961C29.7051 12.8217 28.3679 12.3845 26.3666 12.3667C27.3807 12.5719 28.0538 12.9556 28.2602 13.5444C29.032 15.6948 23.3961 19.6475 15.6692 22.3778C11.9089 23.7072 8.33714 24.4924 5.58202 24.7066C8.41791 24.8672 12.8602 24.0641 17.6346 22.3778C25.2269 19.701 30.773 15.8108 30.0192 13.6961Z" fill="url(#paint12_linear_6_245)"/>
<path style="mix-blend-mode:screen" d="M16.5486 22.3242C24.1409 19.6386 29.6781 15.7572 28.9242 13.6337C28.6819 12.9466 27.7755 12.5273 26.4204 12.3756C27.4076 12.5808 28.0537 12.9734 28.2601 13.5444C29.0319 15.6948 23.396 19.6475 15.6691 22.3778C12.2588 23.5823 9.01911 24.3407 6.38962 24.6263C9.13577 24.4478 12.7345 23.6716 16.5486 22.3242Z" fill="url(#paint13_linear_6_245)"/>
</mask>
<g mask="url(#mask0_6_245)">
<rect width="35" height="28.6364" fill="white"/>
</g>
<path d="M46.655 9.28475C47.194 9.18208 47.7843 9.10508 48.426 9.05375C49.0805 8.98958 49.7286 8.9575 50.3703 8.9575C51.0376 8.9575 51.7049 9.01525 52.3723 9.13075C53.0524 9.23342 53.662 9.45158 54.201 9.78525C54.74 10.1061 55.1763 10.5617 55.51 11.152C55.8565 11.7295 56.0298 12.4867 56.0298 13.4235C56.0298 14.2705 55.8822 14.9892 55.587 15.5795C55.2918 16.157 54.9004 16.6318 54.4128 17.004C53.9251 17.3762 53.3668 17.6457 52.738 17.8125C52.122 17.9793 51.4803 18.0627 50.813 18.0627C50.7488 18.0627 50.6462 18.0627 50.505 18.0627C50.3638 18.0627 50.2163 18.0627 50.0623 18.0627C49.9083 18.0499 49.7543 18.0371 49.6003 18.0242C49.4591 18.0114 49.3564 17.9986 49.2923 17.9857V22.625H46.655V9.28475ZM50.582 11.229C50.3253 11.229 50.0815 11.2418 49.8505 11.2675C49.6195 11.2803 49.4334 11.2996 49.2923 11.3252V15.695C49.3436 15.7078 49.4206 15.7207 49.5233 15.7335C49.6259 15.7463 49.735 15.7592 49.8505 15.772C49.966 15.772 50.0751 15.772 50.1778 15.772C50.2933 15.772 50.3767 15.772 50.428 15.772C50.7745 15.772 51.1146 15.7399 51.4483 15.6757C51.7948 15.6116 52.1028 15.4961 52.3723 15.3292C52.6418 15.1496 52.8535 14.9057 53.0075 14.5977C53.1743 14.2897 53.2578 13.8855 53.2578 13.385C53.2578 12.9615 53.1808 12.615 53.0268 12.3455C52.8728 12.0632 52.6674 11.8386 52.4108 11.6717C52.1669 11.5049 51.8846 11.3894 51.5638 11.3252C51.2429 11.2611 50.9157 11.229 50.582 11.229ZM60.1929 19.391C60.1929 19.8402 60.2506 20.1674 60.3661 20.3727C60.4816 20.5781 60.6677 20.6807 60.9244 20.6807C61.0784 20.6807 61.2259 20.6679 61.3671 20.6422C61.5211 20.6166 61.7072 20.5588 61.9254 20.469L62.1949 22.4325C61.9895 22.5352 61.6751 22.6378 61.2516 22.7405C60.8281 22.8432 60.3918 22.8945 59.9426 22.8945C59.2111 22.8945 58.6529 22.7277 58.2679 22.394C57.8829 22.0475 57.6904 21.4828 57.6904 20.7V9.15H60.1929V19.391ZM63.2141 13.5582C63.7274 13.3272 64.337 13.1476 65.0428 13.0192C65.7486 12.8781 66.4866 12.8075 67.2566 12.8075C67.9239 12.8075 68.4821 12.8909 68.9313 13.0577C69.3805 13.2117 69.7334 13.4363 69.9901 13.7315C70.2596 14.0267 70.4456 14.3796 70.5483 14.7902C70.6638 15.2009 70.7216 15.6629 70.7216 16.1762C70.7216 16.7409 70.7023 17.312 70.6638 17.8895C70.6253 18.4542 70.5996 19.0124 70.5868 19.5642C70.5868 20.1161 70.6061 20.6551 70.6446 21.1812C70.6831 21.6946 70.7793 22.1822 70.9333 22.6443H68.8928L68.4886 21.316H68.3923C68.1356 21.7138 67.7763 22.0603 67.3143 22.3555C66.8651 22.6378 66.2812 22.779 65.5626 22.779C65.1134 22.779 64.7091 22.7148 64.3498 22.5865C63.9905 22.4453 63.6825 22.2528 63.4258 22.009C63.1691 21.7523 62.9702 21.4572 62.8291 21.1235C62.6879 20.777 62.6173 20.392 62.6173 19.9685C62.6173 19.3782 62.7456 18.8841 63.0023 18.4862C63.2718 18.0756 63.6504 17.7483 64.1381 17.5045C64.6386 17.2478 65.2289 17.0746 65.9091 16.9847C66.6021 16.8821 67.3721 16.85 68.2191 16.8885C68.3089 16.1698 68.2576 15.6565 68.0651 15.3485C67.8726 15.0277 67.4426 14.8672 66.7753 14.8672C66.2748 14.8672 65.7422 14.9186 65.1776 15.0212C64.6257 15.1239 64.1701 15.2587 63.8108 15.4255L63.2141 13.5582ZM66.3903 20.7192C66.8908 20.7192 67.2886 20.6102 67.5838 20.392C67.879 20.161 68.0971 19.9172 68.2383 19.6605V18.4092C67.8405 18.3707 67.4555 18.3643 67.0833 18.39C66.724 18.4157 66.4031 18.4734 66.1208 18.5632C65.8385 18.6531 65.6139 18.7814 65.4471 18.9482C65.2802 19.1151 65.1968 19.3268 65.1968 19.5835C65.1968 19.9428 65.2995 20.2252 65.5048 20.4305C65.723 20.623 66.0181 20.7192 66.3903 20.7192ZM78.7121 22.625V17.158C78.7121 16.3752 78.5966 15.8105 78.3656 15.464C78.1474 15.1175 77.7689 14.9442 77.2299 14.9442C76.755 14.9442 76.3508 15.0854 76.0171 15.3677C75.6963 15.6372 75.4653 15.9773 75.3241 16.388V22.625H72.8216V13H74.8044L75.0931 14.2705H75.1701C75.4653 13.8598 75.8567 13.5005 76.3444 13.1925C76.832 12.8845 77.4609 12.7305 78.2309 12.7305C78.7057 12.7305 79.1292 12.7947 79.5014 12.923C79.8735 13.0513 80.1879 13.2631 80.4446 13.5582C80.7013 13.8534 80.8938 14.2577 81.0221 14.771C81.1504 15.2715 81.2146 15.8939 81.2146 16.6382V22.625H78.7121ZM91.0114 21.7972C90.6264 22.1052 90.1002 22.3683 89.4329 22.5865C88.7784 22.7918 88.0789 22.8945 87.3346 22.8945C85.7818 22.8945 84.646 22.4453 83.9274 21.547C83.2087 20.6358 82.8494 19.391 82.8494 17.8125C82.8494 16.1185 83.2536 14.848 84.0621 14.001C84.8706 13.154 86.0064 12.7305 87.4694 12.7305C87.957 12.7305 88.4319 12.7947 88.8939 12.923C89.3559 13.0513 89.7665 13.2631 90.1259 13.5582C90.4852 13.8534 90.7739 14.2512 90.9921 14.7517C91.2103 15.2522 91.3194 15.8747 91.3194 16.619C91.3194 16.8885 91.3001 17.1772 91.2616 17.4852C91.2359 17.7932 91.191 18.1141 91.1269 18.4477H85.3519C85.3904 19.2562 85.5957 19.8658 85.9679 20.2765C86.3529 20.6872 86.9689 20.8925 87.8159 20.8925C88.342 20.8925 88.8104 20.8155 89.2211 20.6615C89.6446 20.4947 89.9654 20.3278 90.1836 20.161L91.0114 21.7972ZM87.4309 14.7325C86.7764 14.7325 86.2887 14.9314 85.9679 15.3292C85.6599 15.7142 85.4738 16.234 85.4096 16.8885H88.9901C89.0414 16.1955 88.9324 15.6629 88.6629 15.2907C88.4062 14.9186 87.9955 14.7325 87.4309 14.7325ZM92.0858 13H93.414V11.1905L95.9165 10.4782V13H98.265V15.1175H95.9165V18.8135C95.9165 19.4808 95.9807 19.9621 96.109 20.2572C96.2502 20.5396 96.5068 20.6807 96.879 20.6807C97.1357 20.6807 97.3538 20.6551 97.5335 20.6037C97.726 20.5524 97.9378 20.4754 98.1688 20.3727L98.6115 22.2977C98.265 22.4646 97.8608 22.6057 97.3988 22.7213C96.9368 22.8368 96.4683 22.8945 95.9935 22.8945C95.108 22.8945 94.4535 22.6699 94.03 22.2207C93.6193 21.7587 93.414 21.008 93.414 19.9685V15.1175H92.0858V13ZM104.725 9.28475C105.264 9.18208 105.854 9.10508 106.496 9.05375C107.15 8.98958 107.798 8.9575 108.44 8.9575C109.107 8.9575 109.774 9.01525 110.442 9.13075C111.122 9.23342 111.732 9.45158 112.271 9.78525C112.81 10.1061 113.246 10.5617 113.58 11.152C113.926 11.7295 114.099 12.4867 114.099 13.4235C114.099 14.2705 113.952 14.9892 113.657 15.5795C113.361 16.157 112.97 16.6318 112.482 17.004C111.995 17.3762 111.436 17.6457 110.808 17.8125C110.192 17.9793 109.55 18.0627 108.883 18.0627C108.818 18.0627 108.716 18.0627 108.575 18.0627C108.433 18.0627 108.286 18.0627 108.132 18.0627C107.978 18.0499 107.824 18.0371 107.67 18.0242C107.529 18.0114 107.426 17.9986 107.362 17.9857V22.625H104.725V9.28475ZM108.652 11.229C108.395 11.229 108.151 11.2418 107.92 11.2675C107.689 11.2803 107.503 11.2996 107.362 11.3252V15.695C107.413 15.7078 107.49 15.7207 107.593 15.7335C107.695 15.7463 107.805 15.7592 107.92 15.772C108.036 15.772 108.145 15.772 108.247 15.772C108.363 15.772 108.446 15.772 108.498 15.772C108.844 15.772 109.184 15.7399 109.518 15.6757C109.864 15.6116 110.172 15.4961 110.442 15.3292C110.711 15.1496 110.923 14.9057 111.077 14.5977C111.244 14.2897 111.327 13.8855 111.327 13.385C111.327 12.9615 111.25 12.615 111.096 12.3455C110.942 12.0632 110.737 11.8386 110.48 11.6717C110.236 11.5049 109.954 11.3894 109.633 11.3252C109.312 11.2611 108.985 11.229 108.652 11.229ZM121.573 22.625V17.158C121.573 16.3752 121.464 15.8105 121.246 15.464C121.028 15.1175 120.63 14.9442 120.053 14.9442C119.629 14.9442 119.238 15.0918 118.878 15.387C118.532 15.6693 118.301 16.0351 118.185 16.4842V22.625H115.683V9.15H118.185V14.078H118.262C118.57 13.6673 118.949 13.3401 119.398 13.0962C119.847 12.8524 120.418 12.7305 121.111 12.7305C121.599 12.7305 122.029 12.7947 122.401 12.923C122.773 13.0513 123.081 13.2631 123.325 13.5582C123.582 13.8534 123.768 14.2577 123.883 14.771C124.012 15.2715 124.076 15.8939 124.076 16.6382V22.625H121.573ZM125.711 17.8125C125.711 16.1827 126.109 14.9314 126.904 14.0587C127.7 13.1732 128.816 12.7305 130.254 12.7305C131.024 12.7305 131.691 12.8524 132.256 13.0962C132.82 13.3401 133.289 13.6866 133.661 14.1357C134.033 14.5721 134.309 15.1047 134.489 15.7335C134.681 16.3623 134.777 17.0553 134.777 17.8125C134.777 19.4423 134.38 20.7 133.584 21.5855C132.801 22.4582 131.691 22.8945 130.254 22.8945C129.484 22.8945 128.816 22.7726 128.252 22.5287C127.687 22.2849 127.212 21.9448 126.827 21.5085C126.455 21.0593 126.173 20.5203 125.98 19.8915C125.801 19.2627 125.711 18.5697 125.711 17.8125ZM128.29 17.8125C128.29 18.236 128.329 18.6274 128.406 18.9867C128.483 19.3461 128.598 19.6605 128.752 19.93C128.906 20.1995 129.105 20.4112 129.349 20.5652C129.606 20.7064 129.907 20.777 130.254 20.777C130.908 20.777 131.396 20.5396 131.717 20.0647C132.038 19.5899 132.198 18.8392 132.198 17.8125C132.198 16.927 132.05 16.2147 131.755 15.6757C131.46 15.1239 130.96 14.848 130.254 14.848C129.638 14.848 129.156 15.079 128.81 15.541C128.463 16.003 128.29 16.7602 128.29 17.8125ZM142.403 22.625V17.158C142.403 16.3752 142.287 15.8105 142.056 15.464C141.838 15.1175 141.459 14.9442 140.92 14.9442C140.445 14.9442 140.041 15.0854 139.708 15.3677C139.387 15.6372 139.156 15.9773 139.015 16.388V22.625H136.512V13H138.495L138.784 14.2705H138.861C139.156 13.8598 139.547 13.5005 140.035 13.1925C140.522 12.8845 141.151 12.7305 141.921 12.7305C142.396 12.7305 142.82 12.7947 143.192 12.923C143.564 13.0513 143.878 13.2631 144.135 13.5582C144.392 13.8534 144.584 14.2577 144.713 14.771C144.841 15.2715 144.905 15.8939 144.905 16.6382V22.625H142.403ZM154.702 21.7972C154.317 22.1052 153.791 22.3683 153.123 22.5865C152.469 22.7918 151.769 22.8945 151.025 22.8945C149.472 22.8945 148.336 22.4453 147.618 21.547C146.899 20.6358 146.54 19.391 146.54 17.8125C146.54 16.1185 146.944 14.848 147.753 14.001C148.561 13.154 149.697 12.7305 151.16 12.7305C151.647 12.7305 152.122 12.7947 152.584 12.923C153.046 13.0513 153.457 13.2631 153.816 13.5582C154.176 13.8534 154.464 14.2512 154.683 14.7517C154.901 15.2522 155.01 15.8747 155.01 16.619C155.01 16.8885 154.991 17.1772 154.952 17.4852C154.926 17.7932 154.881 18.1141 154.817 18.4477H149.042C149.081 19.2562 149.286 19.8658 149.658 20.2765C150.043 20.6872 150.659 20.8925 151.506 20.8925C152.032 20.8925 152.501 20.8155 152.912 20.6615C153.335 20.4947 153.656 20.3278 153.874 20.161L154.702 21.7972ZM151.121 14.7325C150.467 14.7325 149.979 14.9314 149.658 15.3292C149.35 15.7142 149.164 16.234 149.1 16.8885H152.681C152.732 16.1955 152.623 15.6629 152.353 15.2907C152.097 14.9186 151.686 14.7325 151.121 14.7325Z" fill="white"/>
<defs>
<linearGradient id="paint0_linear_6_245" x1="93.5486" y1="8.85118" x2="93.5486" y2="24.2158" gradientUnits="userSpaceOnUse">
<stop stop-color="#05EAFF"/>
<stop offset="1" stop-color="#001AC3"/>
</linearGradient>
<linearGradient id="paint1_linear_6_245" x1="24.9756" y1="7.17374" x2="9.66531" y2="7.17374" gradientUnits="userSpaceOnUse">
<stop stop-color="#F12711"/>
<stop offset="1" stop-color="#F5AF19"/>
</linearGradient>
<linearGradient id="paint2_linear_6_245" x1="-58.9077" y1="19.2638" x2="-58.9077" y2="3.89916" gradientUnits="userSpaceOnUse">
<stop stop-color="#05EAFF"/>
<stop offset="1" stop-color="#001AC3"/>
</linearGradient>
<linearGradient id="paint3_linear_6_245" x1="34.3627" y1="7.89646" x2="5.24949" y2="24.2164" gradientUnits="userSpaceOnUse">
<stop stop-color="#F12711"/>
<stop offset="1" stop-color="#F5AF19"/>
</linearGradient>
<linearGradient id="paint4_linear_6_245" x1="34.2282" y1="8.38721" x2="6.6006" y2="23.879" gradientUnits="userSpaceOnUse">
<stop/>
<stop offset="1" stop-color="#F5AF19"/>
</linearGradient>
<linearGradient id="paint5_linear_6_245" x1="28.4396" y1="8.63704" x2="9.71114" y2="24.5368" gradientUnits="userSpaceOnUse">
<stop stop-color="#001AC3"/>
<stop offset="1" stop-color="#05EAFF"/>
</linearGradient>
<linearGradient id="paint6_linear_6_245" x1="28.2243" y1="9.09209" x2="10.5585" y2="24.0846" gradientUnits="userSpaceOnUse">
<stop/>
<stop offset="1" stop-color="#05EAFF"/>
</linearGradient>
<linearGradient id="paint7_linear_6_245" x1="15.4448" y1="2.19495" x2="19.1243" y2="2.19495" gradientUnits="userSpaceOnUse">
<stop stop-color="#F5AF19"/>
<stop offset="1" stop-color="#F12711"/>
</linearGradient>
<linearGradient id="paint8_linear_6_245" x1="15.4448" y1="2.19495" x2="19.1243" y2="2.19495" gradientUnits="userSpaceOnUse">
<stop stop-color="#F5AF19"/>
<stop offset="1" stop-color="#F12711"/>
</linearGradient>
<linearGradient id="paint9_linear_6_245" x1="9.65634" y1="20.9412" x2="24.9756" y2="20.9412" gradientUnits="userSpaceOnUse">
<stop stop-color="#F12711"/>
<stop offset="1" stop-color="#F5AF19"/>
</linearGradient>
<linearGradient id="paint10_linear_6_245" x1="0.269125" y1="20.2185" x2="29.3824" y2="3.89859" gradientUnits="userSpaceOnUse">
<stop stop-color="#F12711"/>
<stop offset="1" stop-color="#F5AF19"/>
</linearGradient>
<linearGradient id="paint11_linear_6_245" x1="0.403748" y1="19.7278" x2="28.0403" y2="4.23599" gradientUnits="userSpaceOnUse">
<stop/>
<stop offset="1" stop-color="#F5AF19"/>
</linearGradient>
<linearGradient id="paint12_linear_6_245" x1="6.20125" y1="19.4779" x2="24.9297" y2="3.57814" gradientUnits="userSpaceOnUse">
<stop stop-color="#001AC3"/>
<stop offset="1" stop-color="#05EAFF"/>
</linearGradient>
<linearGradient id="paint13_linear_6_245" x1="6.40757" y1="19.0229" x2="24.0732" y2="4.02141" gradientUnits="userSpaceOnUse">
<stop/>
<stop offset="1" stop-color="#05EAFF"/>
</linearGradient>
</defs>
</svg>
